<svg id="Réteg_1" data-name="Réteg 1" xmlns="http://www.w3.org/2000/svg" viewBox="0 0 169 441"><defs><style>.cls-1{fill:#bababa;}</style></defs><path class="cls-1" d="M1005.62,701a3.57,3.57,0,0,1-1.79-.49l-.34,0c-.34,0-.68.05-1,.05s-.52,0-.76,0h-21c-.35,0-.71.05-1.1.05s-1,0-1.49-.06c-.35,0-.7,0-1,0a2,2,0,0,0-.83.12,3.54,3.54,0,0,1-1.61.39H958a3.54,3.54,0,0,1-1.73-.45,1.8,1.8,0,0,0-.5,0l-.86,0c-.43,0-.85.05-1.28.05-.28,0-.54,0-.79,0l-.39,0-.66,0a3.63,3.63,0,0,1-1.73.45H905.65a4,4,0,0,1-.6,0,33.26,33.26,0,0,0-11.49,0,4,4,0,0,1-.6,0h-.8a3.53,3.53,0,0,1-1.32-.26,5.25,5.25,0,0,1-.63-.3c-10.81-3.2-12.65-5.14-13.81-14-.19-1.5-.42-3.2-.81-5.29a5,5,0,0,1-.09-.94v-.91a5,5,0,0,1,.46-2.09,11.24,11.24,0,0,0,0-1.25c0-.51,0-1,0-1.52q0-21.79,0-43.59V486.76c-.09-3.29,0-6.58,0-9.76a129.66,129.66,0,0,0-.37-15.36,4.71,4.71,0,0,1,0-.53V457.5a5.08,5.08,0,0,1,.3-1.73,14.42,14.42,0,0,0,.53-4c0-.75.07-1.49.14-2.23,1.38-15.48,8.28-28,14.65-38.51,7.24-12,16.35-21.3,27.08-27.73,8.12-4.87,11.61-12.22,11.66-24.56l0-6.22c.05-8.41.1-17.11-.07-25.63-.05-2.82,0-5.61.11-8.31a82.19,82.19,0,0,0-.43-14.69c-1-6.82-.25-13.43.5-19.82a84.67,84.67,0,0,0,.88-13.84c-.22-4.63,2.34-8.13,6.52-8.92a4.87,4.87,0,0,0,1.64-.5,3.65,3.65,0,0,1,2.32-.85h11.9a3.47,3.47,0,0,1,1.48.33,3,3,0,0,0,1.19.17c.39,0,.77,0,1.16,0s1-.06,1.55-.06.77,0,1.13.05h4.7c.25,0,.49,0,.76,0s.67,0,1,0l.3,0a3.66,3.66,0,0,1,1.79-.48h5.55a3.47,3.47,0,0,1,1.23.22,15.55,15.55,0,0,0,4.08.66c.95.08,1.94.16,3,.32a10.15,10.15,0,0,1,6.33,3.42,10.6,10.6,0,0,1,2.16,8.24c-.7,5.67-.39,11.39-.06,17.45.36,6.43.72,13.08-.19,19.85a25.25,25.25,0,0,0,.19,5.75,47.54,47.54,0,0,1,.36,5.21c0,5-.07,10.15-.14,15.08-.13,8.86-.27,18,0,27,.32,9.16,3.29,15,9.66,19.06,19.22,12.16,33.11,31.4,41.28,57.2,1.43,4.51,1.66,9,1.87,13.38.1,2,.2,3.81.39,5.62a6,6,0,0,1,0,.74,4.87,4.87,0,0,1,.39,1.94v3.61a5,5,0,0,1-.46,2.1,11.11,11.11,0,0,0,0,1.24c0,.5,0,1,0,1.51q0,27.51,0,55v32q0,56.25,0,112.51c0,.49,0,1,0,1.5a11.42,11.42,0,0,0,0,1.26,5,5,0,0,1,.46,2.09v6.32a5.08,5.08,0,0,1-.52,2.24,7,7,0,0,0-.25,1.78c0,.58-.09,1.23-.19,1.92-.7,5-2.66,11.77-11.6,13.61l-.81.18a18.7,18.7,0,0,1-4.12.57h-.47c-.58,0-1.19.05-1.87.05-.91,0-1.82,0-2.73-.06s-1.67,0-2.51,0a18.16,18.16,0,0,0-4.26.41,3.29,3.29,0,0,1-.82.1Z" transform="translate(-875.5 -260)"/></svg>